<svg width="24" height="24" viewBox="0 0 24 24" fill="none" xmlns="http://www.w3.org/2000/svg">
<g clip-path="url(#clip0_6_11509)">
<path d="M18 4.5C18.3978 4.5 18.7794 4.65804 19.0607 4.93934C19.342 5.22064 19.5 5.60218 19.5 6V14C19.5 14.3978 19.342 14.7794 19.0607 15.0607C18.7794 15.342 18.3978 15.5 18 15.5C17.6022 15.5 17.2207 15.342 16.9394 15.0607C16.6581 14.7794 16.5 14.3978 16.5 14V9.621L7.40302 18.718C7.11998 18.9911 6.74101 19.1421 6.34771 19.1385C5.95442 19.1349 5.57827 18.977 5.30029 18.6987C5.02231 18.4205 4.86473 18.0442 4.8615 17.6509C4.85827 17.2576 5.00964 16.8788 5.28302 16.596L14.377 7.5H10C9.60219 7.5 9.22066 7.34196 8.93936 7.06066C8.65805 6.77936 8.50002 6.39782 8.50002 6C8.50002 5.60218 8.65805 5.22064 8.93936 4.93934C9.22066 4.65804 9.60219 4.5 10 4.5H18Z" fill="black"/>
</g>
<defs>
<clipPath id="clip0_6_11509">
<rect width="24" height="24" fill="white"/>
</clipPath>
</defs>
</svg>
