<svg width="28" height="28" viewBox="0 0 28 28" fill="none" xmlns="http://www.w3.org/2000/svg">
<g clip-path="url(#clip0_131_46)">
<path d="M22.1667 3.5C22.7855 3.5 23.379 3.74583 23.8166 4.18342C24.2542 4.621 24.5 5.21449 24.5 5.83333V22.1667C24.5 22.7855 24.2542 23.379 23.8166 23.8166C23.379 24.2542 22.7855 24.5 22.1667 24.5H5.83333C5.21449 24.5 4.621 24.2542 4.18342 23.8166C3.74583 23.379 3.5 22.7855 3.5 22.1667V5.83333C3.5 5.21449 3.74583 4.621 4.18342 4.18342C4.621 3.74583 5.21449 3.5 5.83333 3.5H22.1667ZM22.1667 5.83333H5.83333V22.1667H22.1667V5.83333ZM18.6667 16.3333C18.964 16.3337 19.25 16.4475 19.4663 16.6517C19.6825 16.8558 19.8126 17.1348 19.83 17.4316C19.8475 17.7285 19.7509 18.0208 19.56 18.2488C19.3692 18.4768 19.0984 18.6234 18.8032 18.6585L18.6667 18.6667H16.3333C16.036 18.6663 15.75 18.5525 15.5337 18.3483C15.3175 18.1442 15.1874 17.8652 15.17 17.5684C15.1525 17.2715 15.2491 16.9792 15.44 16.7512C15.6308 16.5232 15.9016 16.3766 16.1968 16.3415L16.3333 16.3333H18.6667ZM10.5583 9.87583L13.8588 13.1752C14.0775 13.3939 14.2004 13.6906 14.2004 14C14.2004 14.3094 14.0775 14.6061 13.8588 14.8248L10.5583 18.1253C10.3394 18.3441 10.0426 18.4669 9.73309 18.4668C9.42361 18.4667 9.12684 18.3437 8.90808 18.1247C8.68932 17.9058 8.56649 17.609 8.5666 17.2995C8.56671 16.99 8.68975 16.6933 8.90867 16.4745L11.3832 14.0012L8.90983 11.5255C8.7958 11.4186 8.70442 11.2898 8.64112 11.1469C8.57782 11.0039 8.5439 10.8497 8.54136 10.6934C8.53882 10.5371 8.56772 10.3819 8.62635 10.237C8.68497 10.092 8.77212 9.96039 8.88262 9.84981C8.99312 9.73923 9.12472 9.65198 9.2696 9.59326C9.41448 9.53453 9.56968 9.50552 9.72599 9.50795C9.8823 9.51038 10.0365 9.54419 10.1795 9.60739C10.3225 9.67059 10.4513 9.76188 10.5583 9.87583Z" fill="#FF9900"/>
</g>
<defs>
<clipPath id="clip0_131_46">
<rect width="28" height="28" fill="white"/>
</clipPath>
</defs>
</svg>
