<svg width="32" height="32" viewBox="0 0 32 32" fill="none" xmlns="http://www.w3.org/2000/svg">
<g clip-path="url(#clip0_51_52)">
<path d="M25.3333 4C26.0406 4 26.7189 4.28095 27.219 4.78105C27.719 5.28115 28 5.95942 28 6.66667V25.3333C28 26.0406 27.719 26.7189 27.219 27.219C26.7189 27.719 26.0406 28 25.3333 28H6.66667C5.95942 28 5.28115 27.719 4.78105 27.219C4.28095 26.7189 4 26.0406 4 25.3333V6.66667C4 5.95942 4.28095 5.28115 4.78105 4.78105C5.28115 4.28095 5.95942 4 6.66667 4H25.3333ZM25.3333 6.66667H6.66667V25.3333H25.3333V6.66667ZM21.3333 18.6667C21.6732 18.667 22 18.7972 22.2472 19.0305C22.4943 19.2638 22.643 19.5826 22.6629 19.9219C22.6828 20.2611 22.5724 20.5952 22.3543 20.8558C22.1362 21.1164 21.8268 21.2839 21.4893 21.324L21.3333 21.3333H18.6667C18.3268 21.333 18 21.2028 17.7528 20.9695C17.5057 20.7362 17.357 20.4174 17.3371 20.0781C17.3172 19.7389 17.4276 19.4048 17.6457 19.1442C17.8638 18.8836 18.1732 18.7161 18.5107 18.676L18.6667 18.6667H21.3333ZM12.0667 11.2867L15.8387 15.0573C16.0886 15.3074 16.229 15.6464 16.229 16C16.229 16.3536 16.0886 16.6926 15.8387 16.9427L12.0667 20.7147C11.8165 20.9647 11.4772 21.1051 11.1235 21.1049C10.7698 21.1048 10.4307 20.9642 10.1807 20.714C9.93066 20.4638 9.79027 20.1246 9.7904 19.7709C9.79052 19.4172 9.93115 19.078 10.1813 18.828L13.0093 16.0013L10.1827 13.172C10.0523 13.0498 9.94791 12.9026 9.87557 12.7393C9.80323 12.5759 9.76445 12.3997 9.76155 12.221C9.75865 12.0424 9.79168 11.865 9.85868 11.6994C9.92568 11.5338 10.0253 11.3833 10.1516 11.2569C10.2779 11.1305 10.4283 11.0308 10.5938 10.9637C10.7594 10.8966 10.9368 10.8635 11.1154 10.8662C11.2941 10.869 11.4703 10.9076 11.6337 10.9799C11.7971 11.0521 11.9444 11.1564 12.0667 11.2867Z" fill="white"/>
</g>
<defs>
<clipPath id="clip0_51_52">
<rect width="32" height="32" fill="white"/>
</clipPath>
</defs>
</svg>
