<svg width="36" height="36" viewBox="0 0 36 36" fill="none" xmlns="http://www.w3.org/2000/svg">
<g clip-path="url(#clip0_68_55)">
<path d="M9.47248 9.26402C9.09748 8.30702 9.11248 7.21352 9.27898 6.21302C10.4253 6.55648 11.5018 7.09983 12.459 7.81802C12.879 8.13902 13.4295 8.24252 13.9425 8.08802C15.2588 7.69417 16.626 7.49605 18 7.50002C19.4415 7.50002 20.811 7.71002 22.0545 8.08652C22.5675 8.24252 23.118 8.13752 23.5365 7.81652C24.4932 7.09849 25.5692 6.55514 26.715 6.21152C26.8815 7.21202 26.895 8.30552 26.523 9.26102C26.298 9.83702 26.4105 10.5 26.835 10.971C27.921 12.1755 28.5 13.56 28.5 15C28.5 18.171 25.545 21.2805 20.799 22.227C19.611 22.464 19.1475 23.9595 20.0565 24.816C20.64 25.365 21 26.139 21 27V31.5C21 31.8978 21.158 32.2794 21.4393 32.5607C21.7206 32.842 22.1022 33 22.5 33C22.8978 33 23.2793 32.842 23.5606 32.5607C23.8419 32.2794 24 31.8978 24 31.5V27C24 26.145 23.82 25.332 23.499 24.5955C28.0245 23.025 31.5 19.4895 31.5 15C31.5 12.9795 30.774 11.1225 29.5695 9.56702C29.8845 8.33702 29.856 7.09802 29.736 6.14702C29.6295 5.29502 29.481 4.17902 28.881 3.51302C27.9885 2.52452 26.511 3.10652 25.461 3.46502C24.3346 3.84615 23.263 4.37313 22.2735 5.03252C20.877 4.67614 19.4412 4.49723 18 4.50002C16.509 4.50002 15.0705 4.68752 13.7235 5.03402C12.734 4.37461 11.6623 3.84763 10.536 3.46652C9.48598 3.10652 8.00698 2.52452 7.11448 3.51302C6.50248 4.19102 6.37498 5.21852 6.26548 6.09152L6.25798 6.14852C6.13798 7.10102 6.11098 8.34152 6.42598 9.57302C5.22598 11.127 4.49998 12.981 4.49998 15C4.49998 19.488 7.97548 23.025 12.501 24.5955C12.1734 25.3444 12.0029 26.1526 12 26.97L11.748 27.021C10.6725 27.1695 9.98398 27.036 9.51598 26.838C8.37598 26.355 7.78798 25.1385 7.07098 24.2085C6.62398 23.631 5.97298 22.9095 4.97398 22.5765C4.78704 22.5143 4.58967 22.4895 4.39315 22.5035C4.19662 22.5175 4.00478 22.5701 3.82858 22.6583C3.47273 22.8363 3.20219 23.1485 3.07648 23.526C2.95077 23.9036 2.98018 24.3156 3.15824 24.6714C3.33631 25.0273 3.64844 25.2978 4.02598 25.4235C4.86298 25.7025 5.44198 27.1365 5.97298 27.7725C6.53248 28.4445 7.27648 29.1465 8.34298 29.5995C9.36598 30.0345 10.5675 30.189 12 30.0135V31.5C12 31.8978 12.158 32.2794 12.4393 32.5607C12.7206 32.842 13.1022 33 13.5 33C13.8978 33 14.2793 32.842 14.5606 32.5607C14.8419 32.2794 15 31.8978 15 31.5V27C15 26.139 15.36 25.365 15.9435 24.816C16.854 23.958 16.389 22.464 15.201 22.227C10.4535 21.2805 7.49998 18.171 7.49998 15C7.49998 13.563 8.07748 12.1785 9.16198 10.974C9.58648 10.503 9.69748 9.84002 9.47248 9.26402Z" fill="white"/>
</g>
<defs>
<clipPath id="clip0_68_55">
<rect width="36" height="36" fill="white"/>
</clipPath>
</defs>
</svg>
