<svg width="36" height="36" viewBox="0 0 36 36" fill="none" xmlns="http://www.w3.org/2000/svg">
<g clip-path="url(#clip0_68_56)">
<path d="M30 6C30.7569 5.99976 31.4858 6.28561 32.0408 6.80025C32.5958 7.31488 32.9357 8.02027 32.9925 8.775L33 9V27C33.0002 27.7569 32.7144 28.4858 32.1998 29.0408C31.6851 29.5958 30.9797 29.9357 30.225 29.9925L30 30H6C5.24314 30.0002 4.51415 29.7144 3.95918 29.1998C3.40421 28.6851 3.06427 27.9797 3.0075 27.225L3 27V9C2.99976 8.24314 3.28561 7.51415 3.80025 6.95918C4.31488 6.40421 5.02027 6.06427 5.775 6.0075L6 6H30ZM30 11.121L19.59 21.531C19.1681 21.9524 18.5963 22.189 18 22.189C17.4037 22.189 16.8319 21.9524 16.41 21.531L6 11.121V27H30V11.121ZM27.879 9H8.121L18 18.879L27.879 9Z" fill="black"/>
</g>
<defs>
<clipPath id="clip0_68_56">
<rect width="36" height="36" fill="white"/>
</clipPath>
</defs>
</svg>
