<svg width="36" height="36" viewBox="0 0 36 36" fill="none" xmlns="http://www.w3.org/2000/svg">
<g clip-path="url(#clip0_68_165)">
<path fill-rule="evenodd" clip-rule="evenodd" d="M18.7155 6.81902C18.213 5.69851 19.176 4.49702 20.361 4.70552C23.6873 5.29263 26.6728 7.10538 28.728 9.78598C30.7832 12.4666 31.7588 15.8202 31.4624 19.185C31.1659 22.5497 29.6188 25.6811 27.1265 27.961C24.6342 30.2409 21.3777 31.5036 18 31.5C11.349 31.5 5.82296 26.691 4.70546 20.361C4.49546 19.176 5.69846 18.213 6.81896 18.7155C8.4838 19.4629 10.3365 19.6865 12.1314 19.3567C13.9262 19.0269 15.5784 18.1593 16.8688 16.8689C18.1592 15.5785 19.0268 13.9263 19.3566 12.1314C19.6864 10.3366 19.4628 8.48386 18.7155 6.81902ZM22.3215 8.42702C22.6548 10.3256 22.5259 12.2766 21.9456 14.1149C21.3653 15.9531 20.3506 17.6245 18.9876 18.9876C17.6245 20.3507 15.9531 21.3653 14.1148 21.9456C12.2766 22.526 10.3256 22.6549 8.42696 22.3215C9.41602 24.5087 11.1245 26.2911 13.2678 27.372C15.4111 28.4528 17.86 28.7669 20.2068 28.2618C22.5535 27.7568 24.6564 26.4631 26.1653 24.5962C27.6743 22.7294 28.4982 20.402 28.5 18.0015C28.5004 15.9801 27.9176 14.0016 26.8214 12.3032C25.7252 10.6049 24.1637 9.25901 22.3215 8.42702ZM8.34746 11.574L8.44346 11.784C8.85273 12.6296 9.49691 13.3394 10.299 13.8285L10.449 13.917C10.4645 13.9259 10.4775 13.9388 10.4865 13.9544C10.4955 13.9699 10.5002 13.9876 10.5002 14.0055C10.5002 14.0235 10.4955 14.0411 10.4865 14.0567C10.4775 14.0722 10.4645 14.0851 10.449 14.094L10.299 14.181C9.4967 14.6705 8.85249 15.3809 8.44346 16.227L8.34746 16.437C8.33914 16.4559 8.32549 16.472 8.30818 16.4833C8.29086 16.4946 8.27063 16.5007 8.24996 16.5007C8.22928 16.5007 8.20905 16.4946 8.19174 16.4833C8.17442 16.472 8.16078 16.4559 8.15246 16.437L8.05646 16.227C7.64742 15.3809 7.00322 14.6705 6.20096 14.181L6.05096 14.094C6.03537 14.0851 6.02242 14.0722 6.01342 14.0567C6.00441 14.0411 5.99967 14.0235 5.99967 14.0055C5.99967 13.9876 6.00441 13.9699 6.01342 13.9544C6.02242 13.9388 6.03537 13.9259 6.05096 13.917L6.20096 13.8285C7.00266 13.3388 7.64632 12.6284 8.05496 11.7825L8.15096 11.5725C8.15928 11.5536 8.17292 11.5375 8.19024 11.5262C8.20755 11.5149 8.22778 11.5089 8.24846 11.5089C8.26913 11.5089 8.28936 11.5149 8.30668 11.5262C8.32399 11.5375 8.33764 11.5536 8.34596 11.5725L8.34746 11.574ZM12.5955 4.28552C12.6555 4.15052 12.8445 4.15052 12.9045 4.28552L13.0575 4.61851C13.7087 5.96603 14.7347 7.0972 16.0125 7.87651L16.248 8.01451C16.2733 8.02852 16.2944 8.04906 16.3091 8.07399C16.3238 8.09892 16.3315 8.12733 16.3315 8.15627C16.3315 8.1852 16.3238 8.21361 16.3091 8.23854C16.2944 8.26347 16.2733 8.28401 16.248 8.29802L16.011 8.43602C14.6273 9.28048 13.5418 10.5359 12.906 12.027C12.8927 12.0572 12.871 12.0828 12.8434 12.1009C12.8159 12.1189 12.7836 12.1285 12.7507 12.1285C12.7178 12.1285 12.6855 12.1189 12.658 12.1009C12.6304 12.0828 12.6087 12.0572 12.5955 12.027L12.4425 11.694C11.7912 10.3465 10.7652 9.21533 9.48746 8.43602L9.25046 8.29802C9.22514 8.28401 9.20403 8.26347 9.18933 8.23854C9.17464 8.21361 9.16688 8.1852 9.16688 8.15627C9.16688 8.12733 9.17464 8.09892 9.18933 8.07399C9.20403 8.04906 9.22514 8.02852 9.25046 8.01451L9.48746 7.87651C10.7652 7.0972 11.7912 5.96603 12.4425 4.61851L12.5955 4.28552Z" fill="black"/>
</g>
<defs>
<clipPath id="clip0_68_165">
<rect width="36" height="36" fill="white"/>
</clipPath>
</defs>
</svg>
